<?xml version="1.0" encoding="UTF-8" standalone="no"?>
<!-- Creat
 with Inkscape (http://www.inkscape.org/) -->

<svg
   version="1.1"
   viewBox="0 0 1833.8319 1772.7485"
   sodipodi:docname="icon.svg"
   inkscape:version="1.2.2 (1:1.2.2+202305151914+b0a8486541)"
   id="svg24407"
   xmlns:inkscape="http://www.inkscape.org/namespaces/inkscape"
   xmlns:sodipodi="http://sodipodi.sourceforge.net/DTD/sodipodi-0.dtd"
   xmlns="http://www.w3.org/2000/svg"
   xmlns:svg="http://www.w3.org/2000/svg">
  <defs
     id="defs6">
    <style
       type="text/css"
       id="style2">
      .body {
         animation: rainbow 15s infinite;
      }
      @keyframes rainbow{
         from, to { fill: red }
         10% { fill: orange }
         20% { fill: yellow }
         30% { fill: green }
         40% { fill: blue }
         50% { fill: indigo }
         60% { fill: violet }
         70% { fill: pink }
         80% { fill: brown }
         90% { fill: black }
      }
    </style>
  </defs>
  <sodipodi:namedview
     id="namedview4"
     pagecolor="#505050"
     bordercolor="#ffffff"
     borderopacity="1"
     inkscape:showpageshadow="0"
     inkscape:pageopacity="0"
     inkscape:pagecheckerboard="1"
     inkscape:deskcolor="#505050"
     showgrid="false"
     inkscape:zoom="0.11085468"
     inkscape:cx="-1443.331"
     inkscape:cy="3531.6506"
     inkscape:window-width="3440"
     inkscape:window-height="1369"
     inkscape:window-x="0"
     inkscape:window-y="34"
     inkscape:window-maximized="1"
     inkscape:current-layer="g10">
    <inkscape:page
       x="0"
       y="0"
       id="page8"
       width="1833.8319"
       height="1772.7485" />
  </sodipodi:namedview>
  <g
     id="g10"
     inkscape:groupmode="layer"
     inkscape:label="Page 1"
     transform="matrix(1.3333333,0,0,-1.3333333,-1390.6198,5399.5576)">
    <g
       id="g12"
       transform="matrix(0.1,0,0,0.1,-507.79253,264.26602)">
      <path
         d="m 17695.7,35089.5 c 545.3,-120.8 1074.4,-331.4 1591,-611.1 622.9,379.7 1282,681.2 1989.9,876.5 714.6,197.2 1475.5,286.5 2295,240 207.5,372.2 448.7,725.6 718.5,1062.7 316.8,395.8 667.7,763.4 1045.9,1108.4 v -0.1 c 5.6,5 11.2,9.9 17.2,14.6 146.3,116.3 359.3,92 475.6,-54.3 376.7,-473 675.1,-1009.4 882,-1619.2 192.1,-566.1 304.8,-1196 327.6,-1897.7 1050.8,-1081.3 1697.4,-2144 2005.1,-3146.3 346.8,-1129.4 266.6,-2180.2 -149.1,-3096.9 -411.9,-908.2 -1152,-1677.6 -2130.4,-2254.3 -1117.7,-658.9 -2550.8,-1066.5 -4159.4,-1139.2 -1156.2,-52.3 -2152.5,40.6 -2986.5,268 -999.8,272.7 -1768.2,739 -2301.6,1381.2 -537.2,646.9 -829.3,1462 -872.9,2427.9 -29.7,656.8 56.6,1384.6 259.8,2177.6 -385.6,554.3 -688.3,1145.4 -893.4,1779.5 -220.5,681.9 -326,1410.6 -298,2193.3 2.4,158 115.8,297.5 277.1,327.1 656.3,121.2 1290.4,99 1906.6,-37.7 z M 19120.8,33798 c -513,294.1 -1035.6,513.2 -1570.8,631.8 -443.9,98.5 -898.6,127.8 -1366.2,73.5 5.1,-598.6 98.8,-1160.5 269.9,-1689.9 197.5,-610.7 500.2,-1181.8 891.1,-1719.7 67.5,-93.2 80.6,-209.2 45.5,-310.3 -209.4,-775.1 -299.5,-1478.8 -271.2,-2104.5 36.8,-815.5 276.7,-1495.4 716.7,-2025.2 443.7,-534.3 1097.9,-926.3 1959.8,-1161.4 765.3,-208.7 1692.5,-293.3 2779.9,-244.2 1496.4,67.7 2821.4,442.1 3846.8,1046.4 857,505.2 1501.6,1171 1854.8,1949.8 349.4,770.4 415,1658.9 120,2620 -286,931.5 -907.8,1932.4 -1932.9,2964.6 -67.7,68.1 -100.4,157.8 -98.3,246.8 -11.6,675.5 -114,1277.3 -296.2,1814 -138.8,408.8 -324.3,779.9 -551.8,1117 -253.3,-248.2 -487.9,-504.5 -700.7,-770.3 -286.8,-358.5 -539.5,-740.3 -750.9,-1150 -64.5,-125.2 -196.3,-193.1 -328.4,-182.2 v -0.7 c -825.3,70.8 -1580.6,-7 -2281.2,-200.3 -705.9,-194.8 -1360.6,-506.4 -1978.8,-901.5 -112.2,-71.5 -250.6,-68.4 -357.1,-3.7 v 0"
         style="fill:#3b1402;fill-opacity:1;fill-rule:nonzero;stroke:none"
         id="path130" />
      <path
         d="m 19296.4,34086.5 c -1088.3,625.5 -2225.8,933.6 -3446.4,708.2 -54.8,-1489.3 399.6,-2769.8 1220.7,-3899.7 -1077.8,-3951.9 809.4,-6197.6 5519.3,-5984.7 5461.6,246.9 8774.7,4463.9 4113.9,9157 -22.3,1438 -434.1,2562 -1140.1,3448.3 -737.7,-672.8 -1356.7,-1418.8 -1798.1,-2274.3 -1729.9,148.3 -3177.8,-329.4 -4469.3,-1154.8 v 0"
         style="fill:#ffcc01;fill-opacity:1;fill-rule:evenodd;stroke:none"
         id="path132" />
      <path
         d="m 28482.7,27894.9 c 932.9,1466 547.9,3903.4 -1778.8,6172.4 1634.5,-1784.9 2231.8,-4099.8 1778.8,-6172.4 v 0"
         style="fill:#ffff92;fill-opacity:1;fill-rule:evenodd;stroke:none"
         id="path134" />
      <path
         d="m 16990.7,30580.9 c -890.7,-3742.1 1001.8,-5861.4 5547.9,-5672.5 -3111.6,468 -5415.4,1949.2 -5547.9,5672.5 v 0"
         style="fill:#f39308;fill-opacity:1;fill-rule:evenodd;stroke:none"
         id="path136" />
      <path
         d="m 19660,25180 c 809,-227.6 1786,-321.4 2930,-269.6 2858.6,129.1 5127.7,1346.4 5973.9,3149.8 629.9,3647.5 -2682.2,3984.9 -5313.8,3553.6 -5151.6,-883.6 -6676.4,-4297 -3590.1,-6433.8 v 0"
         style="fill:#ffffff;fill-opacity:1;fill-rule:evenodd;stroke:none"
         id="path138" />
      <path
         d="m 19660,25180 c 797.2,-224.3 1757.6,-318.7 2880.2,-271.8 -1822.5,273.9 -3368.1,895.1 -4362.9,2110.7 200.2,-654.2 688.3,-1288.9 1482.7,-1838.9 v 0"
         style="fill:#f7d898;fill-opacity:1;fill-rule:evenodd;stroke:none"
         id="path140" />
      <path
         d="m 26594.9,36104.7 c 196.4,-555.4 308.7,-1178.8 319.6,-1886.5 h -0.1 c 0.5,-43 -13.1,-86.5 -41.8,-122.9 -66.6,-84.2 -189,-98.6 -273.2,-32 -297.4,235.5 -589.8,420.5 -872.6,570.9 -279.3,148.6 -547,261.7 -800.2,355.5 -84.9,26.8 -143.3,109.6 -135.7,202.2 37.1,446.4 109.6,867.7 218,1263.8 108.1,395 251.2,761.4 429.5,1099.2 12.3,25.6 30.4,48.8 54.2,67.7 84.2,67 207,52.9 273.9,-31.3 349.1,-438.2 631,-928.1 828.4,-1486.6 z m -88,-1489.1 c -38.7,498.2 -134.5,948.9 -279.7,1359.4 -145.5,411.4 -340.9,782.9 -578.2,1122.4 -105.1,-235.2 -193.3,-483.1 -264.7,-743.9 -89.2,-326.3 -152.7,-675.6 -190.7,-1048 229.8,-89.5 469.3,-195.1 716.4,-326.4 193.5,-102.9 392.7,-222.4 596.9,-363.5 v 0"
         style="fill:#3b1402;fill-opacity:1;fill-rule:nonzero;stroke:none"
         id="path142" />
      <path
         d="m 26720,34215.9 c -21.2,1369 -433.9,2410.2 -1106.1,3254.1 -347.4,-656 -555.9,-1420.4 -628.4,-2294.1 527.8,-195.1 1115,-469.6 1734.5,-960 v 0"
         style="fill:#ed6c95;fill-opacity:1;fill-rule:evenodd;stroke:none"
         id="path144" />
      <path
         d="m 25246.7,36576.8 c -132.6,-430.7 -219.5,-897.7 -261.2,-1400.9 247.9,-91.6 508.8,-200.7 780,-341.5 -45.2,644.4 -242.2,1185 -518.8,1742.4 v 0"
         style="fill:#d13a86;fill-opacity:1;fill-rule:evenodd;stroke:none"
         id="path146" />
      <path
         d="m 15928.2,32688.6 c -197.7,633.1 -289.9,1310.7 -266.2,2048.2 -1.2,25.9 2.6,52.5 12.1,78.3 37.3,100.7 147.7,151.3 246.5,112.9 444.1,-172.9 880,-375.1 1299,-637.1 420.9,-263.2 821.4,-585.2 1190.7,-995.9 l -0.3,-0.3 c 70.3,-78.1 66.8,-199.5 -8.6,-272.5 -305.6,-295.7 -541.6,-622 -736.2,-969.2 -196.6,-350.6 -352.6,-726.1 -495.5,-1114.6 h -0.2 c -12.5,-34.4 -34.8,-65.6 -66.1,-88.8 -85,-63.2 -204.5,-43.9 -266.7,43.1 -402.7,564.3 -709.2,1157.7 -908.5,1795.9 z m 112,1771.6 c 4.8,-589.2 91.3,-1137.9 252.9,-1655.6 152.1,-486.7 370.7,-945.7 650.5,-1385.2 114,283.2 240.2,559.8 390,827.2 182.4,325.3 398.9,634.4 669.3,921 -308.2,318.7 -637.5,576.1 -981.3,791.1 -314.7,196.8 -643.9,359.3 -981.4,501.5 v 0"
         style="fill:#3b1402;fill-opacity:1;fill-rule:nonzero;stroke:none"
         id="path148" />
      <path
         d="m 15853.2,34745.6 c -49.6,-1439.7 357.1,-2644.8 1137.5,-3738.5 291.6,792.1 638.5,1536.4 1279.1,2156.3 -713.3,793.3 -1545.7,1243 -2416.6,1582.2 v 0"
         style="fill:#ed6c95;fill-opacity:1;fill-rule:evenodd;stroke:none"
         id="path150" />
      <path
         d="m 17504.2,32158.3 c 205.6,360.7 454.1,695.2 765.6,1005.1 -424.1,471.7 -890.4,821.9 -1381.8,1099.7 -44,-218.9 -73.5,-279.7 -35.8,-693.7 37.8,-413.9 292.9,-1081.4 652,-1411.1 v 0"
         style="fill:#d13a86;fill-opacity:1;fill-rule:evenodd;stroke:none"
         id="path152" />
      <path
         d="m 24235.2,31848.5 c 5.8,-210.7 -91.7,-404.2 -242.2,-552.8 -153.2,-151.2 -365.9,-257.9 -578,-286 -188.9,-25.2 -415.1,1.6 -606.7,84.5 -177.6,76.9 -329.2,202.1 -406.8,379.9 -85.8,196.4 52,351.6 301.9,460.7 129.8,56.7 298.1,105.5 471.4,140.9 171.1,34.9 349.7,57.3 503,61.6 315.8,8.8 551.4,-74.4 557.4,-288.8 v 0"
         style="fill:#3b1402;fill-opacity:1;fill-rule:nonzero;stroke:none"
         id="path154" />
      <path
         d="m 24051.6,31843.6 c 9.1,-324.3 -327.9,-607.6 -660.3,-651.8 -295.3,-39.3 -697.1,71.3 -821.4,355.7 -125.2,286.8 1474.1,569.1 1481.7,296.1 v 0"
         style="fill:#ed6c95;fill-opacity:1;fill-rule:evenodd;stroke:none"
         id="path156" />
      <path
         d="m 22967.1,29307.8 c -316.7,-308.3 -692.3,-570.1 -1105,-780.6 299.3,-591.8 670.3,-1169.8 1098.4,-1563.5 348.2,-320.2 732.8,-514.6 1142.4,-481.3 l 1.8,0.3 c 460.5,68.3 758.2,439.8 959,974.6 198.1,527.5 302.2,1210.4 370.8,1928.7 -352,21.1 -725.6,113.1 -1067.1,272.6 -275.7,128.7 -531.8,302.1 -741,518.4 -170.1,-320.4 -393.9,-611.1 -659.3,-869.2 z m -1466.5,-499.1 c 446.5,205.7 850,472.5 1180,793.6 307.3,299 551.1,645.6 706.5,1033.9 42.2,105.3 161.9,156.5 267.2,114.2 43.1,-17.2 77.1,-47.4 99.3,-84.3 189.6,-274.9 472,-488.3 787.6,-635.7 358.8,-167.5 757.6,-248.5 1112.8,-237.7 113.3,3.2 207.7,-86.2 210.7,-199.5 0.3,-7.7 0,-15.1 -0.5,-22.5 l 0.5,-0.1 c -71,-827.9 -181,-1631.8 -416.2,-2258.2 -252.6,-672.3 -647.8,-1142.5 -1284.2,-1236.9 -9.2,-1.4 -18.3,-2.1 -27.2,-2.2 -539.1,-44.7 -1026.1,193.4 -1455,587.8 -514.7,473.4 -947,1177.4 -1280.5,1872.4 -48.9,102.2 -5.7,224.7 96.6,273.6 l 2.5,1.2 -0.1,0.4 v 0"
         style="fill:#3b1402;fill-opacity:1;fill-rule:nonzero;stroke:none"
         id="path158" />
      <path
         d="m 21586.7,28622 c 907.1,417.9 1648.1,1080.5 1991.1,1937.7 446.7,-657.3 1348.8,-994.7 2081.8,-972.2 -139.6,-1625.3 -428,-3145.6 -1525.1,-3308.4 -1083.2,-101 -1966.7,1131.9 -2547.8,2342.9 v 0"
         style="fill:#660e2c;fill-opacity:1;fill-rule:evenodd;stroke:none"
         id="path160" />
      <path
         d="m 25427.3,27962 c -211.5,-903.2 -582.7,-1577.5 -1292.8,-1682.9 -761.1,-70.9 -1423.4,516.5 -1951.7,1292.2 293.6,608.3 919.7,1042.8 1662.6,1075.9 635.1,28.3 1211.5,-243.4 1581.9,-685.2 v 0"
         style="fill:#d13a86;fill-opacity:1;fill-rule:evenodd;stroke:none"
         id="path162" />
      <path
         d="m 25297.8,27502.2 c -225.4,-665.9 -579.9,-1136.5 -1163.3,-1223.1 -656.8,-61.2 -1240.3,368.1 -1727.3,985.5 759.6,1011.3 2309.4,1224.6 2890.6,237.6 v 0"
         style="fill:#ed6c95;fill-opacity:1;fill-rule:evenodd;stroke:none"
         id="path164" />
      <path
         d="m 19629.9,32160.2 c 589.8,117.6 1163.5,-313.5 1281.6,-963 118,-649.5 -264.4,-1271.4 -854.2,-1389.1 -589.7,-117.7 -1163.5,313.4 -1281.6,963 -118,649.5 264.5,1271.4 854.2,1389.1 v 0"
         style="fill:#3b1402;fill-opacity:1;fill-rule:evenodd;stroke:none"
         id="path166" />
      <path
         d="m 20204.1,31773.8 c 171.2,34.2 337.9,-91 372.2,-279.6 34.2,-188.6 -76.8,-369.3 -248.1,-403.4 -171.2,-34.2 -337.9,91 -372.2,279.6 -34.3,188.7 76.8,369.3 248.1,403.4 v 0"
         style="fill:#ffffff;fill-opacity:1;fill-rule:evenodd;stroke:none"
         id="path168" />
      <path
         d="m 23095.8,31686.1 c -41.5,147.7 879.6,293.9 913.4,164 13.3,-487.8 -822.4,-449.7 -913.4,-164 v 0"
         style="fill:#ff99cc;fill-opacity:1;fill-rule:evenodd;stroke:none"
         id="path170" />
      <path
         d="m 22040.6,35246.7 c -367.1,-76.2 -724.1,-174.7 -1072,-293.3 615,-695.7 791.8,-887.6 1301.1,-1637.3 -59.5,829.6 29.1,1041.1 -229.1,1930.6 v 0"
         style="fill:#3b1402;fill-opacity:1;fill-rule:evenodd;stroke:none"
         id="path174" />
      <path
         d="m 23305.8,35278.5 c -202.1,21.8 -402.6,30.5 -601.8,27.4 201.2,-461.3 345.2,-934.3 402.8,-1434.2 110.5,474.4 187,944.7 199,1406.8 v 0"
         style="fill:#3b1402;fill-opacity:1;fill-rule:evenodd;stroke:none"
         id="path176" />
      <path
         d="m 20345.3,34743.1 c -175.7,-102.2 -342.3,-214.2 -500.8,-334.9 435.7,-252 832.1,-547.4 1175.1,-915.7 -192.5,447.5 -409.8,871.5 -674.3,1250.6 v 0"
         style="fill:#3b1402;fill-opacity:1;fill-rule:evenodd;stroke:none"
         id="path178" />
      <path
         d="m 20671.9,29414.2 c 14.2,66.5 79.5,109 146,94.8 66.4,-14 109,-79.4 94.8,-145.9 -23.4,-109.8 -10.9,-204.5 27.7,-280.3 26.8,-52.7 66.2,-97.1 114.5,-131.7 50.9,-36.3 112.2,-62.6 180,-77.1 139.9,-29.9 306,-9.8 468.8,73 275.4,140 618.2,388.2 957.3,745.6 275.9,291 549.2,654.4 781.5,1091.1 32,60.1 106.6,82.9 166.7,51 13.5,-7.2 25.2,-16.5 34.7,-27.4 140.1,-138 386.3,-372.2 688.2,-575.9 298.5,-201.7 651,-373.1 1002.9,-385.6 181.4,-6.6 380.3,10.6 542.3,66.4 89,30.7 165.6,72.9 219.1,128.8 47.7,50 77.3,113.5 80.2,192.9 2,55.8 -8.7,121.1 -34.8,196.8 -22.2,64.4 12.1,134.5 76.5,156.6 64.4,22 134.5,-12.3 156.5,-76.6 35.9,-104.2 50.5,-199.1 47.5,-285.5 -5.3,-145.2 -59.9,-261.7 -147.8,-353.7 -82.2,-86.1 -192.6,-148.4 -317.1,-191.4 -193.6,-66.8 -424,-87.5 -631.1,-80.1 -407,14.7 -801.9,204.3 -1132,427.1 -249.1,168.2 -461.7,355.6 -612.7,498.4 -225.2,-394.1 -482.4,-728.3 -742.5,-1002.4 -360.5,-380 -727.4,-645.1 -1023.7,-795.7 -215.4,-109.6 -439.6,-135.2 -631.5,-94.2 -100.8,21.6 -193.1,61.6 -271.5,117.6 -81,57.9 -146.8,132.1 -191.6,220.2 -63.2,124.3 -85,274.5 -48.9,443.2 v 0"
         style="fill:#3b1402;fill-opacity:1;fill-rule:nonzero;stroke:none"
         id="path180" />
      <path
         d="m 25617.7,33351.3 c 495.1,128.8 1003.5,-209.2 1135.7,-755 132.1,-545.8 -162.1,-1092.8 -657.2,-1221.7 -495.2,-128.9 -1003.6,209.1 -1135.8,754.9 -132.1,545.9 162.2,1092.9 657.3,1221.8 v 0"
         style="fill:#3b1402;fill-opacity:1;fill-rule:evenodd;stroke:none"
         id="path182" />
      <path
         d="m 26124.2,33051.3 c 143.8,37.5 291.5,-60.7 329.9,-219.2 38.3,-158.5 -47.1,-317.4 -190.9,-354.8 -143.8,-37.4 -291.4,60.7 -329.9,219.2 -38.3,158.5 47.2,317.4 190.9,354.8 v 0"
         style="fill:#ffffff;fill-opacity:1;fill-rule:evenodd;stroke:none"
         id="path184" />
      <path
         d="m 17907.2,26784.1 c -53,-19.9 -112.1,6.9 -132.1,59.8 -19.9,53 6.9,112.2 59.8,132.1 l 1483.8,559.3 c 53,20 112.1,-6.8 132,-59.8 20,-53 -6.8,-112.1 -59.7,-132.1 z m -330,1212.2 c -56.5,-4.7 -106.1,37.4 -110.8,93.9 -4.6,56.5 37.4,106.2 94,110.8 l 1579.9,134.9 c 56.5,4.7 106.2,-37.4 110.8,-93.9 4.6,-56.6 -37.5,-106.2 -93.9,-110.8 l -1580,-134.9 v 0"
         style="fill:#3b1402;fill-opacity:1;fill-rule:nonzero;stroke:none"
         id="path186" />
      <path
         d="m 28423,31064.8 c 47.7,30.3 111.1,16.7 141.7,-30.4 30.5,-47.2 16.6,-110 -30.9,-140.2 L 27405.3,30175 c -47.6,-30.2 -111,-16.5 -141.5,30.6 -30.5,47.1 -16.8,109.9 30.8,140.2 z m 355.2,-1181.1 c 54.9,13.3 110.6,-20 124,-74.4 13.4,-54.5 -20.2,-109.6 -75.2,-122.9 l -1247.4,-307.8 c -55,-13.4 -110.6,19.9 -124.1,74.4 -13.5,54.4 20.3,109.5 75.2,122.8 l 1247.5,307.9 v 0"
         style="fill:#3b1402;fill-opacity:1;fill-rule:nonzero;stroke:none"
         id="path188" />
    </g>
  </g>
</svg>
